<svg width="68" height="73" viewBox="0 0 68 73" fill="none" xmlns="http://www.w3.org/2000/svg">
<path d="M30.205 26.2011H48.3781L66.9689 44.6718C68.1789 45.8732 68.1847 47.8298 66.9804 49.037L43.1376 72.9999H24.4209L30.082 67.4962L50.8611 46.8487L30.3451 26.1982" fill="#00F0FF"/>
<path d="M37.6721 46.7988H19.5047L0.911043 28.3282C0.62331 28.0425 0.39474 27.7029 0.238413 27.3288C0.0820865 26.9547 0.0010734 26.5534 1.05947e-05 26.1479C-0.00105221 25.7425 0.0778561 25.3408 0.232219 24.9658C0.386582 24.5909 0.61337 24.2501 0.899601 23.9629L24.7424 0H43.4619L37.8037 5.50372L17.0217 26.1513L37.5406 46.7988" fill="#00F0FF"/>
</svg>
