<svg xmlns="http://www.w3.org/2000/svg" width="56" height="71" viewBox="0 0 56 71" fill="none">
  <path fill-rule="evenodd" clip-rule="evenodd" d="M55.9264 37.6535C55.8745 45.2104 55.8383 52.7668 55.7647 60.323C55.7542 61.3517 55.6468 62.398 55.4286 63.4014C54.2646 68.7554 49.2465 71.9685 44.0574 70.7287C39.6331 69.6718 36.581 65.897 36.5251 61.3828C36.4864 58.2697 36.4841 55.1559 36.4492 52.0428C36.4298 50.2781 36.5182 48.4969 36.3125 46.7528C35.721 41.7523 31.1516 38.1493 25.6028 39.6593C22.0832 40.6174 19.7162 43.8027 19.6159 47.6755C19.5277 51.0788 19.5881 54.486 19.5446 57.891C19.5231 59.599 19.5745 61.3303 19.3192 63.0095C18.3651 69.2911 11.052 72.9236 5.47791 69.9401C1.90029 68.0251 0.398705 64.8186 0.243283 60.9346C0.0986364 57.3158 0.156661 53.6892 0.130964 50.0659C0.0882751 44.1663 0.0203038 38.2664 0.022376 32.3668C0.0236194 29.3313 1.14556 26.7131 3.37039 24.6424C6.19657 22.0113 9.58973 21.2552 13.3016 21.9246C16.219 22.4512 18.5562 23.9525 20.2741 26.4353C21.0649 27.5779 21.9622 28.6598 22.9109 29.6754C24.1062 30.9555 25.696 31.5325 27.3995 31.5916C30.3691 31.6949 32.8474 30.6239 34.6264 28.1457C34.9863 27.6442 35.2869 27.0976 35.6675 26.6136C36.2593 25.86 36.8159 25.0493 37.5287 24.4261C40.0412 22.2291 43.0112 21.3952 46.2995 21.7838C50.6795 22.3008 53.7267 24.6265 55.3277 28.7689C55.6632 29.6366 55.7815 30.5885 56 31.5016C56 33.3957 56 35.29 56 37.184C55.9744 37.3407 55.9274 37.4968 55.9264 37.6535ZM45.1678 20.435C40.7865 19.9447 37.368 16.8566 36.5498 12.5717C35.8193 8.74426 36.6194 5.30172 39.5105 2.58775C44.5287 -2.12243 53.311 -0.30951 55.5521 7.2671C55.7401 7.9028 55.8525 8.56057 56 9.20834C56 10.0461 56 10.8838 56 11.7215C55.7095 12.7063 55.5166 13.734 55.1115 14.6683C53.4303 18.5421 49.3122 20.899 45.1678 20.435ZM11.6658 20.3137C11.1775 20.4041 10.6765 20.4575 10.1658 20.4745C10.141 20.4754 10.1169 20.4775 10.0921 20.4783C9.91301 20.4829 9.73313 20.4825 9.55204 20.4779C9.37091 20.4729 9.18896 20.4629 9.00576 20.4483C4.58183 20.0946 0.983092 16.7729 0.205152 12.3447C-0.369702 9.07253 0.23748 6.08445 2.35702 3.4917C6.54969 -1.63796 14.7249 -0.990604 18.145 4.71976C19.2073 6.49312 19.7104 8.41518 19.6884 10.4805C19.7415 15.4386 16.2704 19.4598 11.6658 20.3137Z" fill="#D7F269"/>
</svg>