<svg width="57" height="72" viewBox="0 0 57 72" fill="none" xmlns="http://www.w3.org/2000/svg">
<path fill-rule="evenodd" clip-rule="evenodd" d="M0.474429 69.6415C1.55265e-06 68.7179 0 67.5072 0 65.0875V6.91172C0 4.49259 1.55265e-06 3.28358 0.474429 2.35942C0.892878 1.54647 1.55852 0.885262 2.37823 0.471117C3.31046 3.2652e-07 4.53089 0 6.9712 0H29.7709C35.8475 0 38.887 -5.22433e-07 41.3799 0.66285C48.1449 2.46022 53.4302 7.69947 55.2431 14.4091C55.9104 16.8808 55.9104 19.8943 55.9104 25.9197C55.9104 29.8425 54.1185 31.2811 52.5905 32.5049C51.4554 33.4153 50.4655 34.2091 50.4655 35.8213C50.4655 37.41 51.6189 38.2032 52.9557 39.1241C54.8024 40.395 57 41.907 57 46.0813C57 52.0962 57 55.1053 56.3344 57.5727C54.5231 64.2866 49.2362 69.5308 42.4668 71.3277C39.9783 71.9894 36.9449 71.9905 30.8777 71.9921L6.97231 71.9998C4.532 72.0015 3.31213 72.0015 2.3799 71.5303C1.55963 71.1162 0.892878 70.4544 0.474429 69.6415ZM32.4977 23.6101C33.865 21.4796 35.0505 19.6363 35.0505 17.2801C35.0505 12.5087 31.1415 8.64007 26.3196 8.64007C21.4967 8.64007 17.5876 12.69 17.5876 17.2801C17.5876 19.6363 18.8047 21.4796 20.2097 23.6101C22.1329 26.5211 24.4081 29.9696 24.4081 36.0016C24.4081 42.0313 22.1329 45.4798 20.2097 48.393C18.8047 50.5213 17.5876 52.3647 17.5876 54.7213C17.5876 59.4928 21.4967 63.3614 26.3196 63.3614C31.1415 63.3614 35.0505 59.4928 35.0505 54.7213C35.0505 52.3647 33.865 50.5213 32.4977 48.393C30.6261 45.4798 28.4113 42.0313 28.4113 36.0016C28.4113 29.9696 30.6261 26.5211 32.4977 23.6101Z" fill="#F7CE3C"/>
</svg>
