<svg xmlns="http://www.w3.org/2000/svg" width="93" height="57" viewBox="0 0 93 57" fill="none">
  <path d="M91.4039 40.2686L71.3406 5.43461C66.9619 -1.81973 56.1781 -1.88509 51.93 5.76142L30.8859 41.9678C26.9646 48.634 31.8009 56.934 39.7087 56.934H81.993C89.9011 56.9993 95.8484 48.3726 91.4039 40.2686Z" fill="#003087"/>
  <path d="M62.4519 43.0136L61.2102 40.8569C60.0338 38.8309 57.4849 34.5175 57.4849 34.5175L40.4928 4.9773C36.1141 -1.55815 25.6573 -2.14635 21.2786 6.15369L1.47616 40.3994C-2.64117 47.5884 2.26043 56.9341 11.1487 56.9994H53.1716H71.0786H81.7316C70.8825 57.0648 67.419 51.3789 62.4519 43.0136Z" fill="#1877F2"/>
  <path d="M62.452 42.883L61.2103 40.7263C60.0339 38.7003 57.4851 34.3869 57.4851 34.3869L46.5055 15.042L30.755 41.968C26.8338 48.6342 31.67 56.9342 39.5779 56.9342H53.1063H71.0135H81.7317C70.8174 56.8689 67.4191 51.3137 62.452 42.883Z" fill="url(#paint0_linear_244_1487)"/>
  <defs>
    <linearGradient id="paint0_linear_244_1487" x1="25.1337" y1="29.7648" x2="73.9579" y2="47.807" gradientUnits="userSpaceOnUse">
      <stop stop-color="#003087" stop-opacity="0"/>
      <stop offset="1" stop-color="#003087"/>
    </linearGradient>
  </defs>
</svg>