<svg xmlns="http://www.w3.org/2000/svg" width="61" height="61" viewBox="0 0 61 61" fill="none">
  <path d="M60.2027 46.6605L43.9563 30.4142L60.0677 14.3027C61.1212 13.2493 61.1212 11.5404 60.0677 10.4869L50.4656 0.884806C49.4122 -0.168633 47.7033 -0.168633 46.6498 0.884806L0.79008 46.7418C-0.26336 47.7952 -0.26336 49.5042 0.79008 50.5576L10.3922 60.1597C11.4457 61.2132 13.1546 61.2132 14.208 60.1597L30.5356 43.8321L46.7848 60.0799C47.8231 61.1181 49.5072 61.1181 50.5469 60.0799L60.2041 50.4226C61.2424 49.3843 61.2424 47.7002 60.2027 46.6605Z" fill="#FFBE40"/>
  <path d="M10.7366 24.0329C11.7749 25.0712 13.459 25.0712 14.4987 24.0329L24.1559 14.3757C25.1942 13.3374 25.1942 11.6532 24.1559 10.6136L14.3211 0.778719C13.2828 -0.259573 11.5987 -0.259573 10.559 0.778719L0.901766 10.4359C-0.136526 11.4742 -0.136526 13.1584 0.901766 14.198L10.7366 24.0329Z" fill="#FFBE40"/>
</svg>