<svg xmlns="http://www.w3.org/2000/svg" width="28" height="28" viewBox="0 0 28 28" fill="none">
  <path d="M14 0C11.2311 0 8.52431 0.821085 6.22202 2.35942C3.91973 3.89776 2.12532 6.08426 1.06569 8.64243C0.00606655 11.2006 -0.271181 14.0155 0.269012 16.7313C0.809205 19.447 2.14258 21.9416 4.10051 23.8995C6.05845 25.8574 8.55301 27.1908 11.2687 27.731C13.9845 28.2712 16.7994 27.9939 19.3576 26.9343C21.9157 25.8747 24.1022 24.0803 25.6406 21.778C27.1789 19.4757 28 16.7689 28 14C28 10.287 26.525 6.72601 23.8995 4.1005C21.274 1.475 17.713 0 14 0Z" fill="#FF0303"/>
  <path d="M14.0034 5.19922C14.2093 5.19912 14.4133 5.23961 14.6036 5.31836C14.794 5.39712 14.9669 5.5126 15.1126 5.65821C15.2583 5.80383 15.3738 5.97671 15.4527 6.167C15.5315 6.35729 15.5721 6.56124 15.5721 6.76722L15.0143 17.1685H15.004C14.9757 17.414 14.8581 17.6406 14.6736 17.805C14.4891 17.9695 14.2505 18.0603 14.0034 18.0603C13.7562 18.0603 13.5177 17.9695 13.3332 17.805C13.1486 17.6406 13.031 17.414 13.0027 17.1685L12.9983 17.1095C12.9983 17.0889 12.9946 17.0705 12.9946 17.0498V17.0322L12.4368 6.76943C12.4365 6.56345 12.4768 6.35944 12.5554 6.16904C12.634 5.97865 12.7493 5.80559 12.8948 5.65978C13.0403 5.51396 13.213 5.39823 13.4033 5.31921C13.5935 5.24019 13.7974 5.19941 14.0034 5.19922ZM14.0034 22.8009C13.6916 22.8012 13.3867 22.709 13.1273 22.536C12.8679 22.363 12.6657 22.1169 12.5462 21.829C12.4267 21.541 12.3952 21.224 12.4559 20.9182C12.5165 20.6124 12.6665 20.3314 12.8869 20.1108C13.1073 19.8903 13.3881 19.74 13.6939 19.6791C13.9996 19.6181 14.3166 19.6493 14.6047 19.7685C14.8928 19.8878 15.139 20.0898 15.3123 20.349C15.4855 20.6082 15.578 20.913 15.578 21.2248C15.5782 21.4317 15.5376 21.6366 15.4586 21.8278C15.3795 22.019 15.2636 22.1928 15.1173 22.3392C14.9711 22.4856 14.7974 22.6017 14.6063 22.6809C14.4151 22.7601 14.2103 22.8009 14.0034 22.8009Z" fill="white"/>
</svg>