<svg xmlns="http://www.w3.org/2000/svg" width="26" height="26" viewBox="0 0 26 26" fill="none">
  <g clip-path="url(#clip0_366_991)">
    <path d="M13 0C15.5712 0 18.0846 0.762437 20.2224 2.1909C22.3603 3.61935 24.0265 5.64968 25.0104 8.02512C25.9944 10.4006 26.2518 13.0144 25.7502 15.5362C25.2486 18.0579 24.0105 20.3743 22.1924 22.1924C20.3743 24.0105 18.0579 25.2486 15.5362 25.7502C13.0144 26.2518 10.4006 25.9944 8.02512 25.0104C5.64968 24.0265 3.61935 22.3603 2.1909 20.2224C0.762437 18.0846 0 15.5712 0 13C0 9.55219 1.36964 6.24558 3.80761 3.80761C6.24558 1.36964 9.55219 0 13 0Z" fill="#14C893"/>
    <path d="M9.85042 17.9852L5.48762 13.6224C5.36831 13.5117 5.27314 13.3775 5.20805 13.2283C5.14297 13.0791 5.10938 12.9181 5.10938 12.7553C5.10938 12.5925 5.14297 12.4315 5.20805 12.2823C5.27314 12.1331 5.36831 11.999 5.48762 11.8882C5.73603 11.6575 6.0625 11.5293 6.40152 11.5293C6.74054 11.5293 7.06702 11.6575 7.31542 11.8882L10.7617 15.3358L18.6917 7.40582C18.9401 7.1751 19.2666 7.04687 19.6056 7.04688C19.9446 7.04687 20.2711 7.1751 20.5195 7.40582C20.6388 7.51655 20.734 7.65072 20.7991 7.79992C20.8642 7.94912 20.8978 8.11014 20.8978 8.27292C20.8978 8.4357 20.8642 8.59672 20.7991 8.74592C20.734 8.89512 20.6388 9.02929 20.5195 9.14002L11.7614 17.8916C11.7332 17.9248 11.7032 17.9565 11.6717 17.9865C11.4233 18.2172 11.0968 18.3455 10.7578 18.3455C10.4188 18.3455 10.0923 18.2172 9.84392 17.9865L9.85042 17.9852Z" fill="white"/>
  </g>
  <defs>
    <clipPath id="clip0_366_991">
      <rect width="26" height="26" fill="white"/>
    </clipPath>
  </defs>
</svg>