<svg width="24" height="24" viewBox="0 0 24 24" fill="none" xmlns="http://www.w3.org/2000/svg">
<g clip-path="url(#clip0_5_586)">
<path d="M22.4221 10.776L20.2201 9.31802C19.8301 9.06002 19.6381 8.59202 19.7281 8.13002L20.2501 5.53802C20.3461 5.05202 20.1961 4.54802 19.8481 4.19402C19.4941 3.84002 18.9961 3.69002 18.5041 3.79202L15.9121 4.31402C15.4501 4.41002 14.9881 4.21202 14.7241 3.82202L13.2601 1.62002C12.9841 1.20602 12.5221 0.960022 12.0241 0.960022C11.5261 0.960022 11.0641 1.20602 10.7881 1.62002L9.32406 3.82202C9.06606 4.21202 8.59806 4.40402 8.13606 4.31402L5.54406 3.79202C5.05806 3.69602 4.55406 3.84602 4.20006 4.19402C3.84606 4.54802 3.69606 5.04602 3.79806 5.53802L4.32006 8.13002C4.41006 8.59202 4.21806 9.05402 3.82806 9.31802L1.62606 10.782C1.21206 11.058 0.966064 11.52 0.966064 12.018C0.966064 12.516 1.21206 12.978 1.62606 13.254L3.82806 14.718C4.21806 14.976 4.41006 15.444 4.32006 15.906L3.79806 18.498C3.70206 18.984 3.85206 19.488 4.20006 19.842C4.55406 20.196 5.05206 20.346 5.54406 20.244L8.13606 19.722C8.59806 19.626 9.06006 19.824 9.32406 20.214L10.7881 22.416C11.0641 22.83 11.5261 23.076 12.0241 23.076C12.5221 23.076 12.9841 22.83 13.2601 22.416L14.7241 20.214C14.9821 19.824 15.4501 19.632 15.9121 19.722L18.5041 20.244C18.9901 20.34 19.4941 20.19 19.8481 19.842C20.2021 19.488 20.3521 18.99 20.2501 18.498L19.7281 15.906C19.6381 15.444 19.8301 14.982 20.2201 14.718L22.4221 13.254C22.8361 12.978 23.0821 12.516 23.0821 12.018C23.0821 11.52 22.8361 11.052 22.4221 10.776Z" fill="#5396FF"/>
<path d="M16.4296 10.2225L11.4736 15.2625C11.3356 15.4065 11.1496 15.4785 10.9576 15.4785C10.7896 15.4785 10.6156 15.4185 10.4836 15.2985L7.24361 12.4365C6.94361 12.1725 6.91961 11.7165 7.17761 11.4225C7.44161 11.1225 7.89761 11.0985 8.19161 11.3565L10.9216 13.7685L15.3976 9.21452C15.6736 8.93252 16.1296 8.92652 16.4176 9.20852C16.7056 9.47852 16.7056 9.93452 16.4296 10.2225Z" fill="white"/>
</g>
<defs>
<clipPath id="clip0_5_586">
<rect width="24" height="24" fill="white"/>
</clipPath>
</defs>
</svg>
