<svg width="198" height="198" viewBox="0 0 198 198" fill="none" xmlns="http://www.w3.org/2000/svg">
<circle cx="99" cy="99" r="99" fill="url(#paint0_linear_0_1)"/>
<path d="M106.243 70.5754L69.5017 107.492C60.867 104.461 48.807 106.814 43.648 114.603C39.628 120.675 41.4035 127.592 41.5292 128.061C43.514 135.289 50.3815 140.08 56.7549 140.791C57.1904 140.842 57.6092 140.825 58.0363 140.833C58.0363 141.26 58.0112 141.688 58.053 142.115C58.6309 148.505 63.2707 155.473 70.4564 157.608C70.917 157.742 77.8013 159.677 83.9485 155.783C92.3822 150.448 94.7942 137.132 90.9668 128.371L128.093 91.2784C136.753 94.1343 148.679 91.6302 153.721 83.8247C157.674 77.7109 155.814 70.8099 155.689 70.3493C153.62 63.1384 146.702 58.4233 140.321 57.7868C139.894 57.7449 139.466 57.7617 139.039 57.7617C139.031 57.3345 139.056 56.9074 139.006 56.4803C138.361 50.0985 133.637 43.1808 126.427 41.1289C125.966 40.9949 119.065 39.144 112.96 43.1138C104.601 48.5408 102.332 61.857 106.243 70.5754Z" fill="white"/>
<defs>
<linearGradient id="paint0_linear_0_1" x1="96.7414" y1="7.16651e-08" x2="99.3764" y2="198" gradientUnits="userSpaceOnUse">
<stop stop-color="#FFAC03"/>
<stop offset="1" stop-color="#FFC10B"/>
</linearGradient>
</defs>
</svg>
