<svg xmlns="http://www.w3.org/2000/svg" width="24" height="26" viewBox="0 0 24 26" fill="none">
  <path d="M9.33269 0.777519C9.33269 0.311008 8.99302 0 8.48351 0H2.5434C1.10186 0 0 1.01077 0 2.32867V20.1922C0 21.4362 1.10186 22.5208 2.5434 22.5208H5.08679V4.66123C5.09093 2.48417 6.95499 0.777519 9.33269 0.777519ZM18.131 8.75875H21.8964C22.2154 8.75875 22.4556 8.60713 22.6172 8.3039C22.6959 8.00067 22.6959 7.69744 22.4556 7.54582L18.6902 3.98478C18.45 3.7593 18.131 3.68155 17.8908 3.83317C17.4889 3.90703 17.3315 4.1364 17.3315 4.43963V8.00067C17.3315 8.45552 17.6505 8.75875 18.131 8.75875Z" fill="currentcolor"/>
  <path d="M19.1076 17.5168H12.8859C12.3515 17.5168 11.9953 17.268 11.9953 16.8909C11.9953 16.5138 12.3515 16.265 12.8859 16.265H19.1076C19.642 16.265 19.9982 16.5138 19.9982 16.8909C19.9982 17.268 19.642 17.5168 19.1076 17.5168ZM16.5684 20.0204H12.7574C12.3018 20.0204 11.9953 19.7716 11.9953 19.3945C11.9953 19.0174 12.3018 18.7686 12.7574 18.7686H16.5684C17.024 18.7686 17.3306 19.0174 17.3306 19.3945C17.3306 19.7716 17.024 20.0204 16.5684 20.0204ZM23.1713 10.2703H17.3099C16.4027 10.2703 15.7399 9.57058 15.7399 8.79306V3.28045C15.7399 2.89169 15.4085 2.50293 14.9156 2.50293H9.14118C7.73693 2.50293 6.66406 3.5137 6.66406 4.8316V22.6951C6.66406 23.9391 7.73693 25.0238 9.14118 25.0238H21.5226C22.844 25.0238 23.9997 24.013 23.9997 22.6951V11.044C23.9956 10.5775 23.6642 10.2703 23.1713 10.2703Z" fill="currentcolor"/>
</svg>