<svg xmlns="http://www.w3.org/2000/svg" width="20" height="23" viewBox="0 0 20 23" fill="none">
  <path d="M17.5574 5.01241C16.2157 4.85908 14.8741 4.74408 13.5241 4.65783V4.64824L13.3407 3.40241C13.2157 2.52074 13.0324 1.19824 11.0824 1.19824H8.89907C6.95741 1.19824 6.77407 2.46324 6.64074 3.39283L6.46574 4.61949C5.69074 4.67699 4.91574 4.73449 4.14074 4.82074L2.44074 5.01241C2.09074 5.05074 1.84074 5.40533 1.87407 5.79824C1.90741 6.19116 2.20741 6.47866 2.55741 6.44033L4.25741 6.24866C8.62407 5.75033 13.0241 5.94199 17.4407 6.44991C17.4657 6.44991 17.4824 6.44991 17.5074 6.44991C17.8241 6.44991 18.0991 6.17199 18.1324 5.79824C18.1574 5.40533 17.9074 5.05074 17.5574 5.01241Z" fill="white" fill-opacity="0.5"/>
  <path d="M16.0264 7.80051C15.8264 7.56092 15.5514 7.42676 15.2681 7.42676H4.73475C4.45142 7.42676 4.16809 7.56092 3.97642 7.80051C3.78475 8.04009 3.67642 8.36592 3.69309 8.70134L4.20975 18.5338C4.30142 19.9905 4.41809 21.8113 7.32642 21.8113H12.6764C15.5848 21.8113 15.7014 20.0001 15.7931 18.5338L16.3098 8.71092C16.3264 8.36592 16.2181 8.04009 16.0264 7.80051ZM11.3848 17.0101H8.60975C8.26809 17.0101 7.98475 16.6843 7.98475 16.2913C7.98475 15.8984 8.26809 15.5726 8.60975 15.5726H11.3848C11.7264 15.5726 12.0098 15.8984 12.0098 16.2913C12.0098 16.6843 11.7264 17.0101 11.3848 17.0101ZM12.0848 13.1768H7.91809C7.57642 13.1768 7.29309 12.8509 7.29309 12.458C7.29309 12.0651 7.57642 11.7393 7.91809 11.7393H12.0848C12.4264 11.7393 12.7098 12.0651 12.7098 12.458C12.7098 12.8509 12.4264 13.1768 12.0848 13.1768Z" fill="white" fill-opacity="0.5"/>
</svg>