<svg width="19" height="23" viewBox="0 0 19 23" fill="none" xmlns="http://www.w3.org/2000/svg">
<path d="M18.9497 18.3333C17.9313 16.2707 17.3816 14.084 17.2924 11.7897C17.2419 10.4845 17.2584 9.17648 17.2437 7.87033C17.2299 6.64232 16.9018 5.49519 16.3393 4.41056C16.3034 4.3407 16.2556 4.27636 16.2133 4.20834C15.7887 4.72032 15.3787 5.21392 14.9559 5.72314C15.4311 6.61658 15.6205 7.54403 15.0111 8.46412C14.4237 9.35021 13.522 9.64802 12.5072 9.67835C12.533 10.0019 12.5697 10.2988 12.5743 10.5957C12.5771 10.7602 12.6405 10.8448 12.7756 10.9211C13.4494 11.3025 14.1185 11.6913 14.7886 12.0792C14.8704 12.1261 14.9467 12.1813 15.0497 12.2484C14.5193 12.5462 14.045 12.8477 13.5404 13.0876C12.7048 13.4837 12.157 14.1373 11.736 14.9324C11.1303 16.0767 10.7194 17.2946 10.3444 18.5263C10.0732 19.4161 9.81587 20.3095 9.55207 21.2011C9.34985 20.6983 9.20186 20.191 9.05204 19.6836C8.59613 18.1357 8.14481 16.5869 7.42234 15.1337C6.97011 14.2246 6.37264 13.4709 5.41762 13.0343C4.93781 12.8146 4.49109 12.5223 3.99841 12.2465C4.10136 12.1813 4.17673 12.1307 4.25486 12.0857C4.92494 11.6978 5.59686 11.3126 6.26418 10.9211C6.34507 10.8733 6.45445 10.7942 6.46364 10.7189C6.505 10.3788 6.51511 10.0359 6.53809 9.67559C6.40481 9.66732 6.28624 9.66181 6.16675 9.65353C4.95068 9.56897 3.95245 8.78032 3.71714 7.70029C3.58019 7.07157 3.70979 6.47503 4.01036 5.91525C4.09585 5.75623 4.07654 5.65328 3.95245 5.52736C3.75575 5.32881 3.57559 5.11373 3.39727 4.89772C3.21068 4.67252 3.03512 4.43905 2.83749 4.18628C2.27128 5.20381 1.89626 6.24615 1.84111 7.37122C1.78872 8.44206 1.79515 9.5175 1.79975 10.5902C1.80894 13.1436 1.36865 15.6024 0.294136 17.9316C0.199461 18.1375 0.0983518 18.3407 0 18.5447C0.0128685 18.553 0.0248177 18.5622 0.0376862 18.5705C0.876893 17.8939 1.7161 17.2183 2.57185 16.529C3.19873 17.5456 3.80998 18.5355 4.43686 19.5503C5.09867 18.9298 5.74117 18.3278 6.39746 17.7129C7.44624 19.4143 8.47847 21.0872 9.52725 22.7876C10.5806 21.0789 11.6129 19.406 12.657 17.7119C13.3188 18.3333 13.9614 18.9354 14.6167 19.5512C15.25 18.5263 15.8604 17.5364 16.4817 16.5299C17.3347 17.2165 18.1666 17.8866 18.9984 18.5557C19.0067 18.462 18.981 18.3967 18.9497 18.3333Z" fill="white"/>
<path d="M2.47714 1.92492C3.82557 4.20172 5.79261 5.80568 8.08871 7.04289C8.16592 7.08425 8.32126 7.04381 8.4095 6.99142C9.143 6.55481 9.87926 6.54378 10.6072 6.98039C10.7846 7.08701 10.9078 7.08425 11.0834 6.99234C12.3491 6.32869 13.4797 5.48121 14.5128 4.49953C15.3217 3.73202 16.0534 2.90109 16.5819 1.9093C16.6894 1.708 16.7758 1.49475 16.8723 1.28701C16.8475 1.26863 16.8218 1.25025 16.797 1.23186C16.7437 1.30264 16.7032 1.38996 16.6352 1.44144C16.2969 1.70064 15.9716 1.98559 15.603 2.19332C15.1985 2.42128 15.1103 2.37348 14.7739 2.06004C13.26 0.650026 11.451 -0.0310831 9.39945 0.00108808C7.37726 0.0341784 5.61153 0.758488 4.15647 2.18229C4.00481 2.3312 3.84212 2.37256 3.68034 2.28248C3.30899 2.07659 2.9496 1.84771 2.59296 1.61608C2.43762 1.51497 2.3025 1.38169 2.19312 1.29253C2.19587 1.3008 2.21242 1.36239 2.23815 1.42029C2.31537 1.58942 2.38247 1.76499 2.47714 1.92492Z" fill="white"/>
<path d="M6.66598 12.3099C7.41878 12.7677 8.01441 13.3899 8.38576 14.1795C8.74883 14.9525 9.0255 15.766 9.3371 16.5639C9.40237 16.7321 9.45384 16.9067 9.53013 17.1356C10.1478 15.2255 10.6442 13.3173 12.5285 12.2198C12.1994 12.0296 11.9154 11.8558 11.6222 11.6996C11.3961 11.5792 11.3115 11.4045 11.3179 11.1527C11.3262 10.8457 11.3234 10.5359 11.2968 10.2307C11.2251 9.41267 10.9594 8.68377 10.2737 8.16719C9.7921 7.80411 9.25897 7.8032 8.77641 8.16811C8.3205 8.5128 7.99787 8.96319 7.89124 9.52021C7.79289 10.0294 7.74417 10.5534 7.73498 11.0718C7.72855 11.4054 7.63295 11.615 7.33054 11.7575C7.0649 11.8834 6.81673 12.0489 6.53638 12.2116C6.59612 12.2575 6.62921 12.2869 6.66598 12.3099Z" fill="white"/>
<path d="M5.16852 7.88926C5.68785 8.48581 6.85888 8.59886 7.48025 8.131C6.687 7.63005 5.8864 7.12359 5.08488 6.61804C4.83026 7.02432 4.85692 7.5317 5.16852 7.88926Z" fill="white"/>
<path d="M13.3831 8.25173C14.0936 7.94105 14.3216 7.29762 13.964 6.58618C13.5531 6.86745 13.1689 7.14596 12.7682 7.39965C12.3683 7.65151 11.9519 7.87762 11.542 8.11569C12.0154 8.45487 12.7875 8.51185 13.3831 8.25173Z" fill="white"/>
</svg>
