<svg xmlns="http://www.w3.org/2000/svg" width="20" height="20" viewBox="0 0 20 20" fill="none">
  <path d="M9.26602 14.3837C9.46214 14.575 9.72532 14.6822 9.99935 14.6822C10.2734 14.6822 10.5366 14.575 10.7327 14.3837L14.666 10.4503C14.8616 10.2547 14.9715 9.98944 14.9715 9.71283C14.9715 9.43621 14.8616 9.17092 14.666 8.97533C14.4704 8.77973 14.2051 8.66984 13.9285 8.66984C13.6519 8.66984 13.3866 8.77973 13.191 8.97533L11.041 11.1253V2.70866C11.041 2.43239 10.9313 2.16744 10.7359 1.97209C10.5406 1.77674 10.2756 1.66699 9.99935 1.66699C9.72308 1.66699 9.45813 1.77674 9.26278 1.97209C9.06743 2.16744 8.95768 2.43239 8.95768 2.70866V11.1253L6.80768 8.97533C6.61208 8.77973 6.3468 8.66984 6.07018 8.66984C5.79357 8.66984 5.52828 8.77973 5.33268 8.97533C5.13709 9.17092 5.0272 9.43621 5.0272 9.71283C5.0272 9.98944 5.13709 10.2547 5.33268 10.4503L9.26602 14.3837ZM17.291 16.2503H2.70768C2.43142 16.2503 2.16646 16.3601 1.97111 16.5554C1.77576 16.7508 1.66602 17.0157 1.66602 17.292C1.66602 17.5683 1.77576 17.8332 1.97111 18.0286C2.16646 18.2239 2.43142 18.3337 2.70768 18.3337H17.291C17.5673 18.3337 17.8322 18.2239 18.0276 18.0286C18.2229 17.8332 18.3327 17.5683 18.3327 17.292C18.3327 17.0157 18.2229 16.7508 18.0276 16.5554C17.8322 16.3601 17.5673 16.2503 17.291 16.2503Z" fill="white" fill-opacity="0.5"/>
</svg>