<svg xmlns="http://www.w3.org/2000/svg" width="24" height="24" viewBox="0 0 24 24" fill="none">
  <path d="M21 22H3C2.59 22 2.25 21.66 2.25 21.25C2.25 20.84 2.59 20.5 3 20.5H21C21.41 20.5 21.75 20.84 21.75 21.25C21.75 21.66 21.41 22 21 22Z" fill="white" fill-opacity="0.5"/>
  <path d="M19.0186 3.47967C17.0786 1.53967 15.1786 1.48967 13.1886 3.47967L11.9786 4.68967C11.8786 4.78967 11.8386 4.94967 11.8786 5.08967C12.6386 7.73967 14.7586 9.85967 17.4086 10.6197C17.4486 10.6297 17.4886 10.6397 17.5286 10.6397C17.6386 10.6397 17.7386 10.5997 17.8186 10.5197L19.0186 9.30967C20.0086 8.32967 20.4886 7.37967 20.4886 6.41967C20.4986 5.42967 20.0186 4.46967 19.0186 3.47967Z" fill="white" fill-opacity="0.5"/>
  <path d="M15.6084 11.5298C15.3184 11.3898 15.0384 11.2498 14.7684 11.0898C14.5484 10.9598 14.3384 10.8198 14.1284 10.6698C13.9584 10.5598 13.7584 10.3998 13.5684 10.2398C13.5484 10.2298 13.4784 10.1698 13.3984 10.0898C13.0684 9.8098 12.6984 9.4498 12.3684 9.0498C12.3384 9.0298 12.2884 8.9598 12.2184 8.8698C12.1184 8.7498 11.9484 8.5498 11.7984 8.3198C11.6784 8.1698 11.5384 7.9498 11.4084 7.7298C11.2484 7.4598 11.1084 7.1898 10.9684 6.9098C10.9472 6.86441 10.9267 6.81924 10.9068 6.77434C10.7592 6.44102 10.3246 6.34358 10.0668 6.60133L4.33837 12.3298C4.20837 12.4598 4.08837 12.7098 4.05837 12.8798L3.51837 16.7098C3.41837 17.3898 3.60837 18.0298 4.02837 18.4598C4.38837 18.8098 4.88837 18.9998 5.42837 18.9998C5.54837 18.9998 5.66837 18.9898 5.78837 18.9698L9.62837 18.4298C9.80837 18.3998 10.0584 18.2798 10.1784 18.1498L15.8997 12.4285C16.1592 12.1689 16.0613 11.7235 15.7237 11.5794C15.6857 11.5632 15.6473 11.5467 15.6084 11.5298Z" fill="white" fill-opacity="0.5"/>
</svg>