<svg xmlns="http://www.w3.org/2000/svg" width="24" height="24" viewBox="0 0 24 24" fill="none">
  <g clip-path="url(#clip0_366_861)">
    <path d="M5.00002 12.095C5.00002 11.309 5.13135 10.5557 5.36602 9.84899L1.25335 6.73633C0.426094 8.40134 -0.00296535 10.2358 1.54253e-05 12.095C1.54253e-05 14.0203 0.450015 15.8363 1.25135 17.4483L5.36202 14.331C5.12213 13.6099 4.99968 12.8549 4.99935 12.095" fill="#FBBC05"/>
    <path d="M12.2239 4.94867C13.8626 4.94533 15.4519 5.508 16.7239 6.542L20.2792 3.02333C18.1126 1.15533 15.3339 0 12.2239 0C7.39391 0 3.24191 2.738 1.25391 6.73667L5.36924 9.85C6.31657 6.99867 9.01791 4.948 12.2252 4.948" fill="#EA4335"/>
    <path d="M12.2747 19.0826C9.05133 19.0826 6.33667 17.0452 5.38333 14.2119L1.25 17.3052C3.24733 21.2806 7.41933 23.9999 12.2747 23.9999C15.27 23.9999 18.13 22.9579 20.2773 21.0046L16.3527 18.0319C15.246 18.7152 13.852 19.0832 12.274 19.0832" fill="#34A853"/>
    <path d="M23.9994 11.9809C23.9994 11.2703 23.8874 10.5049 23.7201 9.79492H12.2734V14.4389H18.8621C18.5334 16.0229 17.6374 17.2396 16.3534 18.0316L20.2774 21.0043C22.5328 18.9529 23.9994 15.8989 23.9994 11.9809Z" fill="#4285F4"/>
  </g>
  <defs>
    <clipPath id="clip0_366_861">
      <rect width="24" height="24" fill="white"/>
    </clipPath>
  </defs>
</svg>