<svg xmlns="http://www.w3.org/2000/svg" width="20" height="20" viewBox="0 0 20 20" fill="none">
  <path d="M16.25 7.125H13.375C13.375 7.125 13.75 5.875 14 3.625C14.125 2.5 13.25 1.375 12 1.25H11.75C10.75 1.25 10.125 1.875 9.75 2.75L9 4.625C8.375 5.875 7.875 6.625 7.5 6.875C7 7.125 5.125 7.125 5 7.125H2.5C1.75 7.125 1.25 7.625 1.25 8.25V17.625C1.25 18.25 1.75 18.75 2.5 18.75H15.125C17 18.75 17.5 17.5 17.75 15.75L18.75 9.75C18.875 8.375 18.625 7.125 16.25 7.125ZM5 17.625H2.5V8.25H5V17.625Z" fill="currentColor"/>
</svg>