<svg xmlns="http://www.w3.org/2000/svg" width="38" height="38" viewBox="0 0 38 38" fill="none">
  <path d="M26.8227 15.701C26.3143 15.701 25.8244 15.7678 25.3568 15.8977C24.5033 13.2184 21.9947 11.2812 19.0334 11.2812C16.0795 11.2812 13.5783 13.2109 12.7137 15.8754C12.2721 15.7604 11.8082 15.701 11.3295 15.701C8.24941 15.701 5.75195 18.1984 5.75195 21.2785C5.75195 24.2695 8.1084 26.7113 11.066 26.8486C11.1254 26.8523 11.1848 26.8561 11.2441 26.8561H13.5895V24.559H12.3945C9.9416 24.4588 7.96738 23.557 7.96738 21.3639C7.96738 19.1039 10.1902 17.9275 12.7471 17.9275C13.1441 17.9275 14.0496 18.3432 14.417 18.4248C15.1332 16.4691 16.5359 14.0273 18.9852 14.0273C21.4418 14.0273 23.1971 16.51 23.9059 18.4768C24.2918 18.384 25.2492 17.9275 25.6723 17.9275C28.2291 17.9275 30.0771 19.1039 30.0771 21.3639C30.0771 23.4605 27.973 24.3215 25.6723 24.559H24.4773V26.8561H27.0824C27.2197 26.8561 27.3496 26.8412 27.4795 26.8152C30.2516 26.4924 32.4002 24.1359 32.4002 21.2785C32.4002 18.1947 29.9027 15.701 26.8227 15.701Z" fill="#FFAC03"/>
  <path d="M12.4805 25.7061C12.4805 26.0112 12.6017 26.3038 12.8174 26.5195C13.0332 26.7352 13.3258 26.8564 13.6309 26.8564C13.936 26.8564 14.2286 26.7352 14.4443 26.5195C14.66 26.3038 14.7812 26.0112 14.7812 25.7061C14.7812 25.401 14.66 25.1083 14.4443 24.8926C14.2286 24.6769 13.936 24.5557 13.6309 24.5557C13.3258 24.5557 13.0332 24.6769 12.8174 24.8926C12.6017 25.1083 12.4805 25.401 12.4805 25.7061Z" fill="#FFAC03"/>
  <path d="M23.3457 25.7061C23.3457 26.0112 23.4669 26.3038 23.6826 26.5195C23.8984 26.7352 24.191 26.8564 24.4961 26.8564C24.8012 26.8564 25.0938 26.7352 25.3095 26.5195C25.5253 26.3038 25.6465 26.0112 25.6465 25.7061C25.6465 25.401 25.5253 25.1083 25.3095 24.8926C25.0938 24.6769 24.8012 24.5557 24.4961 24.5557C24.191 24.5557 23.8984 24.6769 23.6826 24.8926C23.4669 25.1083 23.3457 25.401 23.3457 25.7061Z" fill="#FFAC03"/>
  <path d="M15.839 21.1705L15.9541 21.2856C16.3326 21.6641 16.9523 21.6641 17.3308 21.2856L17.9394 20.677V24.4399C17.9394 24.9742 18.3773 25.4121 18.9117 25.4121H19.0713C19.6056 25.4121 20.0435 24.9742 20.0435 24.4399V20.5953L20.7449 21.2967C21.1234 21.6752 21.7431 21.6752 22.1217 21.2967L22.2367 21.1817C22.6152 20.8031 22.6152 20.1834 22.2367 19.8049L19.8431 17.4113C19.5871 17.1553 19.2234 17.0737 18.8931 17.1627C18.6371 17.159 18.3773 17.2518 18.1844 17.4447L15.8353 19.7938C15.4605 20.1723 15.4605 20.792 15.839 21.1705Z" fill="#FFAC03"/>
</svg>