<svg width="22" height="23" viewBox="0 0 22 23" fill="none" xmlns="http://www.w3.org/2000/svg">
<path d="M19.9714 11.113L11.4725 20.3186C9.0649 22.9266 4.99892 23.0888 2.39099 20.6812C-0.216937 18.2737 -0.379183 14.2077 2.02839 11.5998L10.5273 2.39417C12.9349 -0.213763 17.0008 -0.37601 19.6088 2.03156C22.2172 4.43913 22.3795 8.5051 19.9714 11.113Z" fill="#55D391"/>
<path d="M19.3877 2.27163C19.3839 2.26782 19.3796 2.26401 19.3752 2.26074C20.677 4.61822 20.3966 7.63939 18.4692 9.72682L14.2878 14.2556L15.5036 15.4713L19.7313 10.892C22.0131 8.42014 21.859 4.55289 19.3877 2.27163Z" fill="#C5D3D0"/>
<path d="M2.55763 20.7824C2.55382 20.7786 2.54947 20.7748 2.54565 20.771C5.00277 21.874 7.99018 21.3453 9.91156 19.2525L14.0804 14.7123L15.392 15.8235L11.1769 20.4143C8.9016 22.8921 5.03489 23.0571 2.55763 20.7824Z" fill="#06905A"/>
<path d="M19.3754 2.26018C18.2413 1.21864 16.787 0.652954 15.2555 0.652954C15.1727 0.652954 15.0894 0.654587 15.0061 0.657854C13.3782 0.722644 11.8728 1.41791 10.7676 2.61516L6.87036 6.8363L14.2885 14.2545L18.4699 9.72572C20.3967 7.63883 20.6771 4.61766 19.3754 2.26018Z" fill="#FCFFFC"/>
<path d="M19.831 1.79131C18.5058 0.567381 16.7826 -0.0663625 14.9805 0.00550524C13.1778 0.077373 11.5112 0.847229 10.2878 2.17243L1.78837 11.378C-0.737887 14.1139 -0.566929 18.3955 2.16949 20.9212C3.42718 22.0825 5.04257 22.713 6.74398 22.713C6.836 22.713 6.92801 22.7114 7.02002 22.7076C8.8227 22.6357 10.4893 21.8658 11.7127 20.5406L20.2116 11.335C22.7378 8.5986 22.5669 4.31757 19.831 1.79131ZM11.2325 20.0969C10.1272 21.2942 8.6218 21.9894 6.99389 22.0542C5.36597 22.1185 3.80993 21.5462 2.61268 20.441C0.141405 18.1592 -0.0132204 14.2925 2.26858 11.8207L6.42657 7.31696L15.0605 15.9509L11.2325 20.0969ZM19.7314 10.8913L15.5037 15.4707L6.8703 6.83675L10.7675 2.61561C11.8727 1.41836 13.3781 0.723094 15.0061 0.658304C15.0894 0.655038 15.1721 0.653404 15.2554 0.653404C16.7924 0.653404 18.2515 1.2229 19.3873 2.27152C21.8591 4.55277 22.0132 8.42002 19.7314 10.8913Z" fill="black"/>
<path d="M2.54572 18.1363C2.45589 18.1363 2.36769 18.0916 2.31596 18.0099C0.909641 15.7984 2.25662 13.5917 2.31487 13.4986C2.39436 13.3712 2.5626 13.3325 2.69 13.412C2.8174 13.4915 2.85606 13.6592 2.77657 13.7866C2.72594 13.8688 1.55591 15.8005 2.77548 17.717C2.85606 17.8439 2.81849 18.0121 2.69164 18.0927C2.64645 18.1226 2.59581 18.1363 2.54572 18.1363Z" fill="white"/>
</svg>
