<svg xmlns="http://www.w3.org/2000/svg" width="19" height="17" viewBox="0 0 19 17" fill="#D1D5DB">
  <path d="M18.9998 1.55835C18.9001 2.33321 18.7811 3.33194 18.642 4.32719C18.1685 7.73031 17.6941 11.1326 17.2053 14.5331C17.1346 15.0268 17.0333 15.5283 16.862 15.9908C16.5276 16.895 15.8964 17.1987 15.0506 16.8733C14.6438 16.7162 14.2483 16.4915 13.8873 16.2329C12.2174 15.0398 10.5604 13.825 8.90016 12.6172C8.79564 12.5408 8.68951 12.4645 8.59705 12.3725C8.19024 11.9708 8.10984 11.4163 8.41857 10.9243C8.57454 10.6753 8.77715 10.4549 8.98136 10.2484C10.4406 8.76721 11.9079 7.29559 13.3671 5.81529C13.6356 5.54284 13.8841 5.24608 14.1357 4.95367C14.2732 4.79488 14.3986 4.60398 14.2426 4.3966C14.0762 4.17534 13.8688 4.27426 13.6911 4.3966C13.1991 4.73501 12.7078 5.07428 12.227 5.4309C10.6159 6.62399 9.01271 7.83096 7.39751 9.01798C6.90868 9.37721 6.40217 9.71474 5.87958 10.0141C5.24524 10.3768 4.57713 10.4297 3.87364 10.1998C2.95308 9.89869 2.01483 9.66355 1.09025 9.37807C0.812872 9.29304 0.537105 9.16636 0.292694 9.0041C-0.0481955 8.77849 -0.100454 8.40018 0.184156 8.09995C0.400428 7.87175 0.671371 7.67738 0.94955 7.54723C4.96465 5.67559 8.98297 3.81091 13.0061 1.95923C14.2668 1.37961 15.5435 0.840767 16.817 0.293247C17.0686 0.184785 17.3307 0.094544 17.5961 0.0407465C18.515 -0.148412 19.0111 0.31494 18.9998 1.55835Z" fill="#D1D5DB"/>
</svg>