<svg t="1733998714542" class="icon" viewBox="0 0 1024 1024" version="1.1" xmlns="http://www.w3.org/2000/svg" p-id="4350" width="200" height="200"><path d="M509.4 25.2c42.4 0 76.8 34.4 76.8 76.8 0 30.9-18.3 57.6-44.6 69.7v49.6h294.3c18.1 0 32.7 14.6 32.7 32.7v588.5c0 18.1-14.6 32.7-32.7 32.7H182c-18.1 0-32.7-14.6-32.7-32.7V254.1c0-18.1 14.6-32.7 32.7-32.7h294.3v-50.1c-25.8-12.4-43.6-38.7-43.6-69.3-0.1-42.4 34.3-76.8 76.7-76.8l-3.2 0.1c0.9 0 1.8-0.1 2.7-0.1h0.5z m291.4 259.2H217.2v517h583.7v-517zM94.7 383.6c14.1 0 25.6 11.5 25.6 25.6v307.2c0 14.1-11.5 25.6-25.6 25.6H76.8c-14.1 0-25.6-11.5-25.6-25.6V409.2c0-14.1 11.5-25.6 25.6-25.6h17.9z m852.5 0c14.1 0 25.6 11.5 25.6 25.6v307.2c0 14.1-11.5 25.6-25.6 25.6h-17.9c-14.1 0-25.6-11.5-25.6-25.6V409.2c0-14.1 11.5-25.6 25.6-25.6h17.9zM631.5 655c2.2 0 4.2 0.9 5.8 2.4s2.4 3.6 2.4 5.8v49c0 2.2-0.9 4.2-2.4 5.8s-3.6 2.4-5.8 2.4H386.3c-2.2 0-4.2-0.9-5.8-2.4s-2.4-3.6-2.4-5.8v-49c0-4.5 3.7-8.2 8.2-8.2h245.2zM337.3 433.9c31.6 0 57.2 25.6 57.2 57.2s-25.6 57.2-57.2 57.2-57.2-25.6-57.2-57.2 25.6-57.2 57.2-57.2z m343.3 0c31.6 0 57.2 25.6 57.2 57.2s-25.6 57.2-57.2 57.2-57.2-25.6-57.2-57.2 25.6-57.2 57.2-57.2z" fill="currentColor" p-id="4351"></path></svg>