<svg xmlns="http://www.w3.org/2000/svg" width="18" height="17" viewBox="0 0 18 17" fill="#D1D5DB">
  <path d="M7.69668 10.3364C7.26278 10.8089 6.83796 11.2716 6.41379 11.7343C5.2924 12.9555 4.17101 14.176 3.05026 15.3979C2.58653 15.9038 2.12474 16.411 1.65842 16.9149C1.6208 16.9555 1.55724 16.9935 1.5047 16.9941C1.02346 17 0.541563 16.998 0.0603178 16.9974C0.0473462 16.9974 0.0343747 16.9908 0 16.9817C2.33034 14.4418 4.65096 11.9116 6.98195 9.37107C4.6756 6.25982 2.36731 3.14594 0.0434548 0.0111257C0.116744 0.00719895 0.162793 0.00327225 0.208194 0.00327225C1.89839 0.0026178 3.58858 0.00327225 5.27813 0C5.37607 0 5.43639 0.0307592 5.49281 0.10733C6.73614 1.78796 7.98076 3.46793 9.22538 5.14725C9.46471 5.46989 9.70338 5.79254 9.95244 6.12827C10.1522 5.9123 10.3474 5.70222 10.5413 5.49084C11.4597 4.49018 12.3775 3.48887 13.2959 2.48822C14.0307 1.68652 14.7649 0.884162 15.5017 0.0844241C15.5367 0.046466 15.5938 0.0065445 15.6418 0.00589005C16.1373 0 16.6328 0.0026178 17.175 0.0026178C14.9925 2.3822 12.8334 4.7356 10.6691 7.09555C13.1091 10.3874 15.5471 13.6774 18 16.9863C17.9501 16.9915 17.9241 16.9961 17.8988 16.9961C16.1801 16.9967 14.4614 16.9954 12.7426 17C12.6421 17 12.598 16.949 12.548 16.8815C11.0706 14.8868 9.59313 12.8927 8.11502 10.8986C7.97881 10.7166 7.84326 10.534 7.69668 10.3364ZM15.6431 15.8043C15.6009 15.7428 15.5756 15.7035 15.5477 15.6662C14.3206 14.0105 13.0929 12.3547 11.8657 10.699C10.4836 8.83311 9.1015 6.96728 7.71938 5.10209C6.78673 3.84293 5.85083 2.58508 4.92077 1.3233C4.84942 1.22644 4.78002 1.18914 4.66133 1.19044C3.96346 1.19633 3.26559 1.19306 2.56707 1.19372C2.51713 1.19372 2.46784 1.19764 2.40104 1.20092C2.4419 1.25851 2.46914 1.29712 2.49703 1.33573C3.15663 2.22579 3.81559 3.11649 4.47519 4.00654C6.07394 6.16296 7.67333 8.31937 9.27143 10.4758C10.5569 12.2094 11.8424 13.9431 13.124 15.6793C13.1953 15.7762 13.268 15.8089 13.3854 15.8082C14.0787 15.8024 14.772 15.8056 15.4647 15.8056C15.5166 15.8043 15.5672 15.8043 15.6431 15.8043Z" fill="#D1D5DB"/>
</svg>