<svg t="1734683040275" class="icon" viewBox="0 0 1024 1024" version="1.1" xmlns="http://www.w3.org/2000/svg" p-id="11394" id="mx_n_1734683040277" width="200" height="200"><path d="M0 512c0 282.624 229.376 512 512 512s512-229.376 512-512S794.624 0 512 0 0 229.376 0 512z" fill="#2775C9" p-id="11395"></path><path d="M481.28 321.877v-32.085c0-17.067 13.653-30.72 30.72-30.72s30.72 13.653 30.72 30.72v31.744c55.637 8.192 93.525 39.936 103.765 84.992 2.048 9.899-3.754 19.456-13.653 21.845-1.365 0.342-2.73 0.342-4.096 0.342h-16.725c-13.312 0-25.6-7.851-31.403-19.798-10.581-22.528-35.84-35.498-69.29-35.498-41.985 0-69.974 20.48-69.974 51.2 0 24.576 18.773 38.912 64.17 49.834l42.667 9.899c75.094 17.067 106.838 48.128 106.838 103.424 0 61.099-42.667 102.4-112.64 112.299v36.864c0 17.066-13.654 30.72-30.72 30.72s-30.72-13.654-30.72-30.72v-36.523c-62.123-7.51-104.107-40.277-113.664-90.453-1.707-8.192 3.754-16.384 11.946-17.75 1.024-0.341 2.048-0.341 3.072-0.341h25.259c11.264 0 21.845 6.485 26.624 16.725 11.605 24.576 41.301 39.595 78.507 39.595 44.714 0 75.776-22.187 75.776-52.907 0-26.624-19.115-41.984-65.536-53.248l-48.128-11.264C406.528 515.072 374.1 482.304 374.1 429.397c0.342-56.661 43.35-97.621 107.179-107.52zM128 512c0-169.301 110.592-313.003 263.85-363.52 9.558-3.072 20.14 2.048 23.211 11.605 0.683 1.707 1.024 3.755 1.024 5.803v10.923c0 16.384-9.898 31.402-25.258 37.546C273.067 262.144 189.78 377.173 189.78 512c0 134.485 82.944 249.856 200.704 297.301 15.36 6.144 25.6 21.163 25.6 37.888v8.875c0 10.923-8.874 19.456-19.456 19.456-2.048 0-4.096-0.341-6.144-1.024C237.91 824.32 128 680.96 128 512z m768 0c0 168.619-109.227 311.637-261.12 362.496-10.581 3.755-22.187-2.048-25.941-12.63-0.683-2.047-1.024-4.437-1.024-6.485v-7.168c0-17.066 10.24-32.426 25.941-38.912C751.275 761.515 834.219 646.485 834.219 512c0-134.144-82.603-249.173-200.022-296.96-16.042-6.485-26.282-22.187-26.282-39.253V169.3c0-11.264 9.216-20.48 20.48-20.48 2.389 0 4.437 0.342 6.485 1.024C786.773 200.704 896 343.723 896 512z" fill="#ffffff" p-id="11396" data-spm-anchor-id="a313x.search_index.0.i9.24d63a81pP3yaO" class="selected"></path></svg>