<svg xmlns="http://www.w3.org/2000/svg" width="20" height="20" viewBox="0 0 20 20" fill="none">
  <path d="M5.57339 16.6626H3.22703C2.88527 16.6626 2.60547 16.3828 2.60547 16.041V7.37906C2.60547 7.0373 2.88527 6.7575 3.22703 6.7575H5.57339C5.91515 6.7575 6.19496 7.0373 6.19496 7.37906V16.041C6.19496 16.3828 5.91515 16.6626 5.57339 16.6626ZM11.1835 16.6626H8.83711C8.49535 16.6626 8.21554 16.3828 8.21554 16.041V3.95946C8.21554 3.61769 8.49535 3.33789 8.83711 3.33789H11.1835C11.5252 3.33789 11.805 3.61769 11.805 3.95946V16.041C11.805 16.3828 11.5252 16.6626 11.1835 16.6626ZM16.7736 16.6626H14.4272C14.0854 16.6626 13.8056 16.3828 13.8056 16.041V9.97325C13.8056 9.63148 14.0854 9.35168 14.4272 9.35168H16.7736C17.1153 9.35168 17.3951 9.63148 17.3951 9.97325V16.039C17.3951 16.3828 17.1153 16.6626 16.7736 16.6626Z" fill="white" fill-opacity="0.5"/>
</svg>